<svg width="244" height="61" viewBox="0 0 244 61" fill="none" xmlns="http://www.w3.org/2000/svg">
<g id="Cakap">
<path d="M97.962 37.33C97.3326 37.33 96.7785 37.435 96.3072 37.6455C95.9055 37.826 95.472 38.0824 95.0196 38.41C94.5676 38.7339 94.3197 38.8789 94.1924 38.9441C93.4046 39.3412 92.1296 39.5411 90.4 39.5411C88.081 39.5411 86.2324 38.7402 84.7509 37.0906C83.2463 35.4133 82.5151 33.3473 82.5151 30.7731C82.5151 28.0829 83.236 25.9791 84.7195 24.3419C86.1826 22.7278 88.1725 21.9439 90.8066 21.9439C91.198 21.9439 91.7462 22.0155 92.4339 22.1585C93.2631 22.3284 93.6923 22.4948 93.8673 22.5807C94.1695 22.7509 94.4864 22.9674 94.8095 23.2238C95.2344 23.5624 95.6782 23.8375 96.1302 24.0434C96.6429 24.2767 97.2597 24.3904 98.0203 24.3904C99.11 24.3904 100.046 23.9321 100.725 23.0664C101.356 22.2551 101.675 21.3031 101.675 20.2355C101.675 18.1507 100.494 16.4841 98.1599 15.2841C96.0322 14.1913 93.2276 13.6385 89.8249 13.6385C86.7431 13.6385 83.9403 14.3782 81.494 15.8369C79.0435 17.2994 77.1097 19.3547 75.7449 21.9419C74.3884 24.5144 73.7007 27.4837 73.7007 30.7731C73.7007 33.9356 74.3572 36.853 75.6491 39.4381C76.9536 42.0501 78.8288 44.1265 81.2212 45.6126C83.6111 47.0961 86.4097 47.8488 89.5353 47.8488C91.6086 47.8488 93.5965 47.5924 95.4385 47.0878C97.316 46.573 98.8601 45.8647 100.029 44.9799C101.352 43.9795 102.023 42.8426 102.023 41.6005C102.023 40.3918 101.659 39.375 100.942 38.5741C100.198 37.7481 99.1955 37.33 97.962 37.33Z" fill="#A2A2A2"/>
<path d="M159.308 29.1978L167.312 21.7685C168.443 20.7684 169.018 19.646 169.018 18.431C169.018 17.4475 168.591 16.4932 167.749 15.594C166.895 14.6818 165.897 14.2193 164.786 14.2193C163.567 14.2193 162.49 14.6862 161.589 15.594L150.837 26.0832V6.79026C150.837 5.52941 150.419 4.45544 149.589 3.59372C148.752 2.72565 147.689 2.28643 146.43 2.28643C145.172 2.28643 144.109 2.72565 143.273 3.59372C142.444 4.45313 142.025 5.52941 142.025 6.79026V43.3438C142.025 44.6049 142.444 45.6806 143.271 46.5383C144.107 47.4064 145.17 47.8453 146.43 47.8453C147.691 47.8453 148.754 47.4064 149.589 46.5383C150.419 45.6786 150.837 44.6026 150.837 43.3438V37.0707L152.675 35.3683L163.398 46.3448C164.274 47.3262 165.366 47.8245 166.639 47.8245C167.718 47.8245 168.733 47.4124 169.656 46.6012C170.616 45.7565 171.104 44.6909 171.104 43.4384C171.104 42.2214 170.648 41.1203 169.758 40.1746L159.308 29.1978Z" fill="#A2A2A2"/>
<path d="M242.018 21.9485C240.697 19.368 238.863 17.3164 236.577 15.8476C234.271 14.3785 231.681 13.6391 228.851 13.6391C226.9 13.6391 225.002 14.1138 223.22 15.0554C222.152 15.6247 221.208 16.2594 220.412 16.9467C220.201 16.4296 219.993 13.6391 216.334 13.6391C215.075 13.6391 214.006 14.0823 213.177 14.9481C212.35 15.8055 211.92 17.4658 211.92 18.7246V54.4103C211.92 55.711 212.35 56.8 213.177 57.634C214.017 58.481 215.075 58.9038 216.334 58.9038C217.59 58.9038 218.651 58.4709 219.489 57.6028C220.316 56.7368 220.737 55.6692 220.737 54.4103V45.041C221.554 45.634 222.466 46.1614 223.473 46.6278C225.223 47.4413 227.111 47.8425 229.093 47.8425C231.839 47.8425 234.385 47.103 236.661 45.634C238.936 44.1649 240.749 42.1012 242.049 39.5013C243.339 36.9101 244 33.9489 244 30.7145C244 27.4675 243.329 24.5294 242.018 21.9485ZM233.337 37.0802C231.933 38.7408 230.182 39.5434 227.99 39.5434C225.759 39.5434 223.985 38.7408 222.591 37.0802C221.145 35.3778 220.453 33.2931 220.453 30.7145C220.453 28.1337 221.145 26.0616 222.581 24.3803C223.985 22.7408 225.759 21.9485 227.99 21.9485C230.224 21.9485 231.974 22.7408 233.358 24.3696C234.786 26.0616 235.477 28.1337 235.477 30.7145C235.477 33.2931 234.775 35.3778 233.337 37.0802Z" fill="#A2A2A2"/>
<path d="M204.067 14.9066H204.056C203.229 14.0596 202.169 13.6374 200.912 13.6374C199.653 13.6374 198.585 14.0829 197.755 14.9487C197.326 15.3816 197.011 15.8903 196.801 16.4408C195.89 15.7853 194.852 15.2134 193.708 14.7258C191.989 14.0074 190.124 13.6374 188.153 13.6374C185.405 13.6374 182.858 14.3878 180.572 15.8589C178.307 17.3173 176.494 19.379 175.194 21.9913C173.904 24.5828 173.244 27.531 173.244 30.7676C173.244 34.0126 173.915 36.9632 175.225 39.5336C176.547 42.1228 178.382 44.1739 180.666 45.6346C182.962 47.1036 185.563 47.8434 188.382 47.8434C190.333 47.8434 192.2 47.4105 193.961 46.5638C195.082 46.015 196.067 45.3909 196.907 44.6826C196.918 45.3802 198.049 47.8434 200.912 47.8434C202.169 47.8434 203.239 47.4105 204.067 46.5424C204.896 45.6767 205.315 44.6088 205.315 43.3395V18.1412C205.315 16.8423 204.896 15.7539 204.067 14.9066ZM194.411 37.1123C193.037 38.7498 191.308 39.5443 189.118 39.5443C186.926 39.5443 185.196 38.7498 183.844 37.1123C182.45 35.4289 181.769 33.3571 181.769 30.7676C181.769 28.1868 182.46 26.104 183.875 24.4019C185.248 22.752 186.957 21.9494 189.118 21.9494C191.297 21.9494 193.037 22.752 194.411 24.4019C195.828 26.104 196.509 28.1868 196.509 30.7676C196.509 33.3571 195.828 35.4289 194.411 37.1123Z" fill="#A2A2A2"/>
<path d="M134.161 14.9066C133.321 14.0596 132.263 13.6374 131.006 13.6374C129.747 13.6374 128.689 14.0829 127.849 14.9487C127.42 15.3816 127.105 15.8903 126.895 16.4408C125.984 15.7853 124.947 15.2134 123.813 14.7258C122.084 14.0074 120.219 13.6374 118.258 13.6374C115.509 13.6374 112.953 14.3878 110.677 15.8589C108.402 17.3173 106.589 19.379 105.289 21.9913C103.999 24.5828 103.338 27.531 103.338 30.7676C103.338 34.0126 104.009 36.9632 105.32 39.5336C106.641 42.1228 108.477 44.1739 110.76 45.6346C113.067 47.1036 115.657 47.8434 118.487 47.8434C120.427 47.8434 122.305 47.4105 124.065 46.5638C125.186 46.015 126.161 45.3909 127.001 44.6826C127.012 45.3802 128.154 47.8434 131.006 47.8434C132.273 47.8434 133.334 47.4105 134.172 46.5424C135.001 45.6767 135.42 44.6088 135.42 43.3395V18.1412C135.42 16.8423 134.988 15.7539 134.161 14.9066ZM124.515 37.1123C123.132 38.7498 121.402 39.5443 119.212 39.5443C117.02 39.5443 115.301 38.7498 113.938 37.1123C112.544 35.4289 111.873 33.3571 111.873 30.7676C111.873 28.1868 112.554 26.104 113.969 24.4019C115.343 22.752 117.062 21.9494 119.212 21.9494C121.402 21.9494 123.132 22.752 124.505 24.4019C125.92 26.104 126.614 28.1868 126.614 30.7676C126.614 33.3571 125.92 35.4289 124.515 37.1123Z" fill="#A2A2A2"/>
<path d="M30.2458 0C13.5445 0 0 13.6502 0 30.4947C0 47.3498 13.5445 61 30.2458 61C36.0221 61 41.4043 59.3562 45.9928 56.5086L46.0137 56.5172L24.8154 49.0207C24.7843 49.0098 24.7425 48.9994 24.7091 48.989C24.6779 48.9786 24.6364 48.9786 24.5947 48.9553C24.3216 48.8817 24.0505 48.7768 23.7778 48.6822C23.6091 48.6401 23.4423 48.5642 23.2942 48.5013C23.1901 48.4699 23.0964 48.4278 23.0006 48.3857C22.9485 48.3646 22.8965 48.3439 22.8547 48.3228C22.7089 48.268 22.5714 48.2049 22.4358 48.142C22.3941 48.1316 22.3526 48.1103 22.2983 48.0895C22.2463 48.0688 22.2045 48.0474 22.1628 48.016C22.0272 47.9632 21.9108 47.9087 21.7859 47.8458C21.5754 47.7406 21.367 47.6356 21.1668 47.5286C20.9667 47.423 20.7688 47.3077 20.5686 47.19C20.5063 47.1372 20.4334 47.0954 20.3708 47.0637C20.3084 47.0219 20.2332 46.9902 20.1709 46.9483C19.9499 46.8096 19.7311 46.6625 19.5207 46.5134C18.8807 46.0699 18.2619 45.5949 17.6763 45.0654C17.5703 44.9708 17.4559 44.8636 17.3515 44.7583C17.1619 44.5798 16.9743 44.3989 16.7848 44.2098C16.2286 43.6382 15.7053 43.0351 15.2218 42.4001C15.1801 42.3375 15.128 42.2637 15.076 42.1985C15.0342 42.125 14.9822 42.0621 14.9282 41.9886C14.782 41.7763 14.6365 41.5661 14.4884 41.3328C14.426 41.2382 14.3634 41.1309 14.3008 41.0363L14.2676 41.0051C14.1841 40.8996 14.1009 40.7822 14.028 40.6666C13.7967 40.3179 13.6071 39.9372 13.461 39.5358L13.4507 39.5043C12.1296 36.9025 11.4171 33.9309 11.4171 30.7698V30.6417C11.4171 29.65 11.49 28.6769 11.6275 27.7143C11.6587 27.4706 11.7002 27.237 11.7419 27.0063C11.7628 26.9114 11.7731 26.8254 11.7939 26.7306C11.8357 26.529 11.8671 26.3398 11.9212 26.1486C11.9524 25.9698 12.0047 25.7892 12.0461 25.6107C12.0985 25.4195 12.1505 25.2301 12.2026 25.0492C12.3713 24.4776 12.5588 23.9081 12.7796 23.3575C12.8528 23.1453 12.936 22.9454 13.0318 22.7438C14.1841 20.0791 15.9244 17.7209 18.137 15.861C18.3163 15.714 18.5039 15.5542 18.6934 15.4178C19.4477 14.8248 20.2544 14.2953 21.1042 13.831C21.5337 13.5974 21.9629 13.3748 22.415 13.1752C22.6025 13.0806 22.7921 13.0051 22.9797 12.9209L23.0755 12.8894L23.0964 12.8788C23.3254 12.7842 23.5567 12.6979 23.7883 12.614C24.1029 12.4984 24.4174 12.4041 24.7322 12.3075L24.7843 12.2864L46.3283 4.67427C41.6731 1.71277 36.1596 0 30.2458 0Z" fill="#A2A2A2"/>
<path d="M60.46 29.4797C60.4497 29.1622 60.4391 28.8556 60.4183 28.5488C60.4183 28.4438 60.408 28.3385 60.3974 28.2315C60.3662 27.6409 60.3016 27.0586 60.2184 26.487C60.1455 25.8209 60.0414 25.1757 59.9038 24.5306C59.8409 24.2131 59.7683 23.8958 59.6954 23.5806C59.6202 23.2631 59.5476 22.9459 59.4641 22.6284C59.3808 22.3114 59.2954 22.0043 59.2016 21.6974C59.1078 21.3802 59.014 21.0733 58.9076 20.7665C58.8035 20.4596 58.6992 20.1655 58.5931 19.8586C58.4678 19.5307 58.3429 19.2028 58.2056 18.8752C58.1221 18.6523 58.0284 18.4296 57.9326 18.2194C57.6615 17.5846 57.3572 16.9709 57.0427 16.3572C56.8946 16.0818 56.7488 15.7983 56.5906 15.5229C56.2549 14.9199 55.8987 14.327 55.5321 13.7574C55.3862 13.5454 55.2381 13.3225 55.0923 13.1123C54.7569 12.6249 54.4109 12.1603 54.0546 11.696C53.992 11.6097 53.9297 11.5359 53.865 11.4624C53.7086 11.2608 53.5399 11.0508 53.3732 10.8596C53.1731 10.6156 52.9752 10.374 52.7647 10.1404C52.5563 9.90734 52.3355 9.67634 52.1251 9.4537C51.9166 9.2201 51.6959 8.98881 51.4646 8.77684C51.2352 8.54324 51.0039 8.32262 50.7623 8.0896C50.6062 7.9529 50.4475 7.8038 50.2913 7.66681C49.0535 6.56602 47.7325 5.56108 46.3283 4.67427L24.7839 12.2866C26.5865 11.7484 28.5263 11.452 30.5708 11.452C36.0946 11.452 39.9746 12.9632 43.0356 15.5754C43.7273 16.1363 44.6714 17.3724 44.6714 19.1483C44.6714 21.7816 42.5646 23.8327 39.9746 23.8327C38.6118 23.8327 37.5847 23.2842 36.9762 22.7965C35.1422 21.3591 33.2338 20.4596 30.5082 20.4596C25.3175 20.4596 21.648 25.0811 21.648 30.4951V30.6419C21.648 32.3336 21.9728 33.9204 22.5816 35.3263C22.7191 35.6752 22.8961 36.0138 23.0857 36.3417C23.1275 36.4046 23.1586 36.4802 23.2004 36.5433C23.4211 36.9026 23.663 37.2412 23.9235 37.5585C24.0193 37.6952 24.1234 37.8021 24.2381 37.9285C24.3007 38.002 24.3756 38.0859 24.4485 38.1615C24.5629 38.2667 24.6904 38.3928 24.8151 38.5104C24.9612 38.6471 25.1193 38.7735 25.2757 38.9119C25.4027 39.0275 25.5385 39.1114 25.6761 39.1977C25.7281 39.2608 25.7904 39.3029 25.8739 39.3448C26.0095 39.4394 26.1676 39.5463 26.3343 39.6306C26.4821 39.7358 26.6488 39.8091 26.8178 39.8953C27.2573 40.1162 27.72 40.297 28.2015 40.4334C28.3911 40.4859 28.5681 40.5407 28.7785 40.5828H28.7994C28.9764 40.6249 29.1766 40.6668 29.3744 40.6982C29.4391 40.7089 29.512 40.7089 29.5746 40.7299C29.7098 40.7403 29.8474 40.7613 30.0038 40.7613C30.1102 40.7824 30.2351 40.7824 30.3601 40.7931C30.5394 40.8035 30.7164 40.8141 30.9062 40.8141C33.1191 40.8141 34.932 40.1707 36.5885 39.0907C36.8407 38.9223 37.1011 38.7417 37.3533 38.5629C37.4263 38.5104 37.4803 38.4663 37.5323 38.4138C37.6055 38.3717 37.6679 38.3296 37.7305 38.2668C37.7951 38.214 37.868 38.1615 37.9512 38.1197C38.0242 38.0542 38.1202 38.002 38.2137 37.9495C38.5077 37.7791 38.8534 37.6323 39.2411 37.506C39.6286 37.3883 40.0581 37.3041 40.5207 37.3041C42.9732 37.3041 44.8925 39.3029 44.8925 41.7661C44.8925 43.1507 44.2628 44.2521 43.3816 45.0864C40.3206 47.8985 36.4197 49.8128 30.4456 49.8128C30.131 49.8128 29.8268 49.8128 29.5328 49.8027C29.1451 49.7814 28.7785 49.7604 28.4117 49.7185C28.1283 49.6868 27.8449 49.6534 27.5719 49.6115C27.4886 49.6115 27.3949 49.5902 27.3096 49.5798C27.0283 49.5377 26.7449 49.4852 26.4615 49.4221C26.1885 49.3803 25.9154 49.3171 25.6529 49.2413C25.3715 49.1784 25.0885 49.1049 24.8154 49.0207L46.0137 56.5172C46.2868 56.3471 46.5489 56.1788 46.8197 55.998C47.0822 55.8299 47.3447 55.6493 47.6075 55.4602C48.0993 55.1112 48.5826 54.7519 49.0535 54.3695C49.0952 54.3377 49.1264 54.3063 49.1682 54.2749C49.3995 54.0961 49.6308 53.8942 49.8599 53.703C50.3434 53.3018 50.8143 52.8689 51.2664 52.4147C51.4957 52.2025 51.7271 51.9798 51.9375 51.7382C52.3773 51.303 52.7856 50.8387 53.1836 50.3741C53.2042 50.3426 53.2357 50.3092 53.2586 50.2774C53.4461 50.0568 53.6254 49.8443 53.8024 49.6219C54.0026 49.3592 54.2107 49.0945 54.4109 48.8294C54.5985 48.5751 54.7881 48.323 54.9673 48.0583C55.1549 47.7935 55.3339 47.5285 55.5009 47.2637C55.6799 47.001 55.8569 46.7259 56.0153 46.4505C56.1509 46.2382 56.2781 46.0176 56.4031 45.7947C56.4654 45.6897 56.528 45.5824 56.5906 45.4774C56.7176 45.2438 56.8428 45.0128 56.9698 44.7798C57.1156 44.494 57.2635 44.2079 57.399 43.9244C57.5448 43.6386 57.6824 43.3419 57.8076 43.0457C57.9451 42.7599 58.0701 42.4634 58.1845 42.1673C58.3117 41.8607 58.4367 41.5556 58.5513 41.249C58.6368 41.0261 58.72 40.7931 58.793 40.5618C58.8556 40.402 58.9076 40.2443 58.9617 40.0845C59.0349 39.8639 59.1078 39.6306 59.1701 39.3975C59.2639 39.08 59.3597 38.7521 59.4535 38.4245C59.5161 38.1825 59.5787 37.9388 59.6328 37.6952C59.81 36.9762 59.9579 36.2575 60.0725 35.5178C60.1246 35.2213 60.1663 34.9148 60.2078 34.6076C60.2184 34.5445 60.2287 34.4819 60.2393 34.4081C60.2704 34.1223 60.3016 33.8471 60.335 33.5507C60.3662 33.1809 60.3974 32.8109 60.4183 32.4303C60.4391 32.1237 60.4497 31.8275 60.46 31.5204C60.4706 31.1821 60.4809 30.8435 60.4809 30.4951C60.4809 30.1566 60.4706 29.8183 60.46 29.4797Z" fill="#A2A2A2"/>
<path d="M18.1893 42.8872C19.6356 42.8872 20.9252 42.2631 21.8276 41.269C22.6863 40.3698 23.2007 39.1551 23.2007 37.8117C23.2007 36.9226 22.9694 36.0675 22.5505 35.3489C21.9317 34.2264 20.894 33.3607 19.6459 32.991C19.1855 32.8312 18.6917 32.7574 18.1893 32.7574C15.4117 32.7574 13.157 35.021 13.157 37.8117C13.157 38.4044 13.2614 38.9743 13.451 39.5037L13.4613 39.5352C13.6071 39.9366 13.797 40.317 14.028 40.666C14.1115 40.7836 14.1947 40.899 14.2782 41.0042L14.2991 41.0357H14.3094C15.2327 42.1581 16.6161 42.8872 18.1893 42.8872Z" fill="#A2A2A2"/>
</g>
</svg>
