<svg width="32" height="32" viewBox="0 0 32 32" fill="none" xmlns="http://www.w3.org/2000/svg">
<g id="directions_run">
<rect width="32" height="32" rx="4" fill="#EAEAEA"/>
<mask id="mask0_58_260" style="mask-type:alpha" maskUnits="userSpaceOnUse" x="0" y="0" width="32" height="32">
<rect id="Bounding box" width="32" height="32" fill="#D9D9D9"/>
</mask>
<g mask="url(#mask0_58_260)">
<path id="directions_run_2" d="M17.3333 30.6667V22.6667L14.5333 20L13.2 25.8667L4 24L4.53333 21.3333L10.9333 22.6667L13.0667 11.8667L10.6667 12.8V17.3333H8V11.0667L13.2667 8.8C14.0444 8.46667 14.6167 8.25 14.9833 8.15C15.35 8.05 15.6889 8 16 8C16.4667 8 16.9 8.12222 17.3 8.36667C17.7 8.61111 18.0222 8.93333 18.2667 9.33333L19.6 11.4667C20.1778 12.4 20.9611 13.1667 21.95 13.7667C22.9389 14.3667 24.0667 14.6667 25.3333 14.6667V17.3333C23.8667 17.3333 22.4944 17.0278 21.2167 16.4167C19.9389 15.8056 18.8667 15 18 14L17.2 18L20 20.6667V30.6667H17.3333ZM18 7.33333C17.2667 7.33333 16.6389 7.07222 16.1167 6.55C15.5944 6.02778 15.3333 5.4 15.3333 4.66667C15.3333 3.93333 15.5944 3.30556 16.1167 2.78333C16.6389 2.26111 17.2667 2 18 2C18.7333 2 19.3611 2.26111 19.8833 2.78333C20.4056 3.30556 20.6667 3.93333 20.6667 4.66667C20.6667 5.4 20.4056 6.02778 19.8833 6.55C19.3611 7.07222 18.7333 7.33333 18 7.33333Z" fill="#4D54FF"/>
</g>
</g>
</svg>
