<svg width="24" height="20" viewBox="0 0 32 32" fill="none" xmlns="http://www.w3.org/2000/svg">
<g id="door_open">
<rect width="32" height="32" rx="4" fill="#EAEAEA"/>
<mask id="mask0_58_240" style="mask-type:alpha" maskUnits="userSpaceOnUse" x="0" y="0" width="32" height="32">
<rect id="Bounding box" width="32" height="32" fill="#D9D9D9"/>
</mask>
<g mask="url(#mask0_58_240)">
<path id="door_open_2" d="M14.6667 17.3333C15.0444 17.3333 15.3611 17.2056 15.6167 16.95C15.8722 16.6944 16 16.3778 16 16C16 15.6222 15.8722 15.3056 15.6167 15.05C15.3611 14.7944 15.0444 14.6667 14.6667 14.6667C14.2889 14.6667 13.9722 14.7944 13.7167 15.05C13.4611 15.3056 13.3333 15.6222 13.3333 16C13.3333 16.3778 13.4611 16.6944 13.7167 16.95C13.9722 17.2056 14.2889 17.3333 14.6667 17.3333ZM9.33333 28V25.3333L17.3333 24V9.16667C17.3333 8.83333 17.2333 8.53333 17.0333 8.26667C16.8333 8 16.5778 7.84444 16.2667 7.8L9.33333 6.66667V4L16.6667 5.2C17.6444 5.37778 18.4444 5.83333 19.0667 6.56667C19.6889 7.3 20 8.15556 20 9.13333V26.2L9.33333 28ZM4 28V25.3333H6.66667V6.66667C6.66667 5.91111 6.92778 5.27778 7.45 4.76667C7.97222 4.25556 8.6 4 9.33333 4H22.6667C23.4222 4 24.0556 4.25556 24.5667 4.76667C25.0778 5.27778 25.3333 5.91111 25.3333 6.66667V25.3333H28V28H4ZM9.33333 25.3333H22.6667V6.66667H9.33333V25.3333Z" fill="#4D54FF"/>
</g>
</g>
</svg>
