<svg width="32" height="32" viewBox="0 0 32 32" fill="none" xmlns="http://www.w3.org/2000/svg">
<g id="escalator_warning">
<rect width="32" height="32" rx="4" fill="#EAEAEA"/>
<mask id="mask0_58_250" style="mask-type:alpha" maskUnits="userSpaceOnUse" x="0" y="0" width="32" height="32">
<rect id="Bounding box" width="32" height="32" fill="#D9D9D9"/>
</mask>
<g mask="url(#mask0_58_250)">
<path id="escalator_warning_2" d="M8.66667 8.00008C7.93334 8.00008 7.30556 7.73897 6.78333 7.21675C6.26111 6.69453 6 6.06675 6 5.33342C6 4.60008 6.26111 3.9723 6.78333 3.45008C7.30556 2.92786 7.93334 2.66675 8.66667 2.66675C9.4 2.66675 10.0278 2.92786 10.55 3.45008C11.0722 3.9723 11.3333 4.60008 11.3333 5.33342C11.3333 6.06675 11.0722 6.69453 10.55 7.21675C10.0278 7.73897 9.4 8.00008 8.66667 8.00008ZM22.6667 14.6668C22.1111 14.6668 21.6389 14.4723 21.25 14.0834C20.8611 13.6945 20.6667 13.2223 20.6667 12.6668C20.6667 12.1112 20.8611 11.639 21.25 11.2501C21.6389 10.8612 22.1111 10.6667 22.6667 10.6667C23.2222 10.6667 23.6945 10.8612 24.0833 11.2501C24.4722 11.639 24.6667 12.1112 24.6667 12.6668C24.6667 13.2223 24.4722 13.6945 24.0833 14.0834C23.6945 14.4723 23.2222 14.6668 22.6667 14.6668ZM6 29.3334V20.0001H4V12.0001C4 11.2668 4.26111 10.639 4.78333 10.1168C5.30556 9.59453 5.93333 9.33342 6.66667 9.33342H10.6667C11.1556 9.33342 11.6 9.45008 12 9.68342C12.4 9.91675 12.7222 10.2445 12.9667 10.6667L17.7333 18.9001L19.1 16.8668C19.2778 16.6001 19.5167 16.389 19.8167 16.2334C20.1167 16.0779 20.4333 16.0001 20.7667 16.0001H24.6667C25.2222 16.0001 25.6945 16.1945 26.0833 16.5834C26.4722 16.9723 26.6667 17.4445 26.6667 18.0001V22.6668H25.3333V29.3334H20V19.8668L18.9667 21.3334H16.0333L12.6667 15.4668V29.3334H6Z" fill="#4D54FF"/>
</g>
</g>
</svg>
