<svg width="32" height="32" viewBox="0 0 32 32" fill="none" xmlns="http://www.w3.org/2000/svg">
<g id="family_star">
<rect width="32" height="32" rx="4" fill="#EAEAEA"/>
<mask id="mask0_58_255" style="mask-type:alpha" maskUnits="userSpaceOnUse" x="0" y="0" width="32" height="32">
<rect id="Bounding box" width="32" height="32" fill="#D9D9D9"/>
</mask>
<g mask="url(#mask0_58_255)">
<path id="family_star_2" d="M16 21.3334C17.0667 21.3334 18.0167 21.0167 18.85 20.3834C19.6834 19.7501 20.2889 18.9334 20.6667 17.9334H11.3334C11.7111 18.9334 12.3167 19.7501 13.15 20.3834C13.9834 21.0167 14.9334 21.3334 16 21.3334ZM12.6667 16.0001C13.2222 16.0001 13.6945 15.8056 14.0834 15.4167C14.4722 15.0279 14.6667 14.5556 14.6667 14.0001C14.6667 13.4445 14.4722 12.9723 14.0834 12.5834C13.6945 12.1945 13.2222 12.0001 12.6667 12.0001C12.1111 12.0001 11.6389 12.1945 11.25 12.5834C10.8611 12.9723 10.6667 13.4445 10.6667 14.0001C10.6667 14.5556 10.8611 15.0279 11.25 15.4167C11.6389 15.8056 12.1111 16.0001 12.6667 16.0001ZM19.3334 16.0001C19.8889 16.0001 20.3611 15.8056 20.75 15.4167C21.1389 15.0279 21.3334 14.5556 21.3334 14.0001C21.3334 13.4445 21.1389 12.9723 20.75 12.5834C20.3611 12.1945 19.8889 12.0001 19.3334 12.0001C18.7778 12.0001 18.3056 12.1945 17.9167 12.5834C17.5278 12.9723 17.3334 13.4445 17.3334 14.0001C17.3334 14.5556 17.5278 15.0279 17.9167 15.4167C18.3056 15.8056 18.7778 16.0001 19.3334 16.0001ZM10.1667 8.53341L13.9 3.70008C14.1667 3.34453 14.4834 3.08341 14.85 2.91675C15.2167 2.75008 15.6 2.66675 16 2.66675C16.4 2.66675 16.7834 2.75008 17.15 2.91675C17.5167 3.08341 17.8334 3.34453 18.1 3.70008L21.8334 8.53341L27.5 10.4334C28.0778 10.6112 28.5334 10.939 28.8667 11.4167C29.2 11.8945 29.3667 12.4223 29.3667 13.0001C29.3667 13.2667 29.3278 13.5334 29.25 13.8001C29.1722 14.0667 29.0445 14.3223 28.8667 14.5667L25.2 19.7667L25.3334 25.2334C25.3556 26.0112 25.1 26.6667 24.5667 27.2001C24.0334 27.7334 23.4111 28.0001 22.7 28.0001C22.6556 28.0001 22.4111 27.9668 21.9667 27.9001L16 26.2334L10.0334 27.9001C9.92224 27.9445 9.80002 27.9723 9.66669 27.9834C9.53335 27.9945 9.41113 28.0001 9.30002 28.0001C8.58891 28.0001 7.96669 27.7334 7.43335 27.2001C6.90002 26.6667 6.64446 26.0112 6.66669 25.2334L6.80002 19.7334L3.16669 14.5667C2.98891 14.3223 2.86113 14.0667 2.78335 13.8001C2.70558 13.5334 2.66669 13.2667 2.66669 13.0001C2.66669 12.4445 2.8278 11.9279 3.15002 11.4501C3.47224 10.9723 3.92224 10.6334 4.50002 10.4334L10.1667 8.53341ZM11.8 10.8334L5.33335 12.9667L9.46669 18.9334L9.33335 25.3001L16 23.4667L22.6667 25.3334L22.5334 18.9334L26.6667 13.0334L20.2 10.8334L16 5.33341L11.8 10.8334Z" fill="#4D54FF"/>
</g>
</g>
</svg>
