<svg width="319" height="51" viewBox="0 0 319 51" fill="none" xmlns="http://www.w3.org/2000/svg">
<path d="M8.09165 25.6028L13.5063 30.9964C13.6459 31.1324 13.7824 31.1294 13.9159 30.9874L21.5556 22.838C21.683 22.699 21.8134 22.6959 21.9469 22.8289L27.2888 28.1591C27.4192 28.286 27.4192 28.4144 27.2888 28.5444L19.6627 36.1453C19.5262 36.2813 19.5262 36.4173 19.6627 36.5532L25.0228 41.897C25.0688 41.9424 25.131 41.9679 25.1957 41.9679C25.2605 41.9679 25.3226 41.9424 25.3686 41.897L47.4642 19.8873C47.4799 19.8716 47.4987 19.8592 47.5196 19.8511C47.5404 19.843 47.5628 19.8392 47.5854 19.8401C47.6079 19.8409 47.6302 19.8464 47.6509 19.856C47.6715 19.8657 47.6901 19.8794 47.7054 19.8964C48.2272 20.4675 48.7883 21.0265 49.389 21.5734C51.5639 23.5496 51.4365 26.8401 49.389 28.8662C42.497 35.686 35.6793 42.4711 28.936 49.2215C27.2615 50.8985 25.4687 51.3895 23.5577 50.6946C22.3291 50.2458 21.046 48.9178 20.0859 47.9887C15.017 43.0664 8.95315 36.9914 1.89433 29.7636C0.856888 28.703 0.266883 27.8222 0.124311 27.1211C-0.207851 25.5031 0.106109 23.5858 1.3028 22.3983C8.33433 15.4394 15.4129 8.38088 22.5384 1.22258C24.3266 -0.576809 27.6255 -0.322994 29.2909 1.54439C29.758 2.07015 30.254 2.57024 30.7788 3.04463C30.799 3.06337 30.8153 3.08599 30.8265 3.11114C30.8378 3.13629 30.8438 3.16345 30.8442 3.19098C30.8446 3.2185 30.8394 3.24583 30.829 3.27131C30.8185 3.2968 30.803 3.3199 30.7833 3.33924L8.09165 25.3761C8.01581 25.4517 8.01581 25.5272 8.09165 25.6028Z" fill="#A2A2A2"/>
<path d="M42.0193 14.1749L36.5788 8.77437C36.5093 8.70545 36.397 8.70565 36.3278 8.7748L27.264 17.8349C27.1948 17.9041 27.195 18.016 27.2644 18.0849L32.705 23.4854C32.7744 23.5543 32.8868 23.5541 32.9559 23.485L42.0197 14.4248C42.0889 14.3557 42.0887 14.2438 42.0193 14.1749Z" fill="#A2A2A2"/>
<path d="M168.644 36.8161C172.485 36.2722 173.781 32.4377 173.804 29.0203C173.847 23.539 173.851 17.6891 173.818 11.4705C173.815 11.2922 173.903 11.2031 174.082 11.2031L179.283 11.2167C179.449 11.2167 179.533 11.2998 179.533 11.466C179.56 17.4277 179.556 23.3819 179.519 29.3285C179.469 37.6864 174.109 42.2914 165.769 41.3894C158.279 40.5781 155.986 34.6587 156.013 27.801C156.034 22.4769 156.037 17.0424 156.022 11.4977C156.019 11.3013 156.118 11.2031 156.318 11.2031L160.891 11.2167C161.106 11.2167 161.214 11.324 161.214 11.5385C161.196 17.5637 161.197 23.3819 161.218 28.9931C161.237 33.4847 163.339 37.573 168.644 36.8161Z" fill="#A2A2A2"/>
<path d="M190.767 24.4561C191.407 23.4498 192.052 22.5116 192.701 21.6414C194.925 18.662 197.582 15.2415 200.673 11.3799C200.764 11.265 200.884 11.2076 201.032 11.2076L207.284 11.2122C207.542 11.2122 207.589 11.3119 207.425 11.5113L197.52 23.5677C197.404 23.7067 197.395 23.8532 197.492 24.0073L208.149 40.7594C208.159 40.7757 208.165 40.7947 208.166 40.8141C208.167 40.8336 208.162 40.8529 208.153 40.87C208.144 40.8872 208.13 40.9015 208.113 40.9115C208.097 40.9216 208.077 40.9269 208.058 40.9271L202.184 40.9316C202.023 40.9316 201.9 40.8621 201.815 40.7231L193.443 27.3886C193.367 27.2677 193.283 27.2617 193.192 27.3704L190.658 30.3981C190.523 30.5561 190.449 30.7554 190.449 30.9602L190.453 40.7004C190.453 40.8515 190.376 40.9271 190.221 40.9271H185.544C185.386 40.9271 185.307 40.85 185.307 40.6959V11.4614C185.307 11.2922 185.392 11.2076 185.562 11.2076L190.203 11.2122C190.268 11.2122 190.331 11.2379 190.377 11.2838C190.423 11.3297 190.449 11.392 190.449 11.4569L190.453 24.3654C190.453 24.7522 190.558 24.7824 190.767 24.4561Z" fill="#A2A2A2"/>
<path d="M246.707 27.9551V36.1906C246.707 36.2351 246.725 36.2778 246.756 36.3092C246.788 36.3407 246.831 36.3583 246.875 36.3583L259.179 36.3765C259.224 36.3765 259.266 36.3941 259.298 36.4256C259.33 36.457 259.347 36.4997 259.347 36.5442L259.338 40.7594C259.338 40.8038 259.32 40.8465 259.289 40.878C259.257 40.9094 259.214 40.9271 259.17 40.9271L241.124 40.9316C241.079 40.9316 241.036 40.9139 241.005 40.8825C240.973 40.851 240.956 40.8084 240.956 40.7639V11.3753C240.956 11.3309 240.973 11.2882 241.005 11.2567C241.036 11.2253 241.079 11.2076 241.124 11.2076L257.991 11.2031C258.036 11.2031 258.079 11.2208 258.11 11.2522C258.142 11.2837 258.16 11.3263 258.16 11.3708L258.178 15.6041C258.178 15.6486 258.16 15.6913 258.129 15.7227C258.097 15.7542 258.054 15.7718 258.01 15.7718L246.871 15.7764C246.826 15.7764 246.783 15.794 246.752 15.8255C246.72 15.8569 246.702 15.8996 246.702 15.9441L246.707 23.0465C246.707 23.0909 246.725 23.1336 246.756 23.165C246.788 23.1965 246.831 23.2142 246.875 23.2142L257.432 23.2096C257.476 23.2096 257.519 23.2273 257.551 23.2587C257.582 23.2902 257.6 23.3328 257.6 23.3773L257.595 27.6152C257.595 27.6597 257.578 27.7023 257.546 27.7338C257.515 27.7652 257.472 27.7829 257.427 27.7829L246.875 27.7874C246.831 27.7874 246.788 27.8051 246.756 27.8365C246.725 27.868 246.707 27.9106 246.707 27.9551Z" fill="#A2A2A2"/>
<path d="M76.2486 27.9325L76.2532 40.7775C76.2532 40.7971 76.2493 40.8166 76.2417 40.8347C76.2342 40.8529 76.2231 40.8694 76.2092 40.8833C76.1952 40.8972 76.1787 40.9082 76.1604 40.9157C76.1422 40.9232 76.1227 40.9271 76.103 40.9271H71.2571C71.2172 40.9271 71.179 40.9113 71.1509 40.8833C71.1227 40.8552 71.1069 40.8172 71.1069 40.7775V11.3572C71.1069 11.3175 71.1227 11.2795 71.1509 11.2514C71.179 11.2234 71.2172 11.2076 71.2571 11.2076L76.0984 11.2122C76.1383 11.2122 76.1765 11.2279 76.2046 11.256C76.2328 11.284 76.2486 11.3221 76.2486 11.3617V23.0646C76.2486 23.1042 76.2644 23.1423 76.2926 23.1704C76.3207 23.1984 76.3589 23.2142 76.3987 23.2142H88.7252C88.765 23.2142 88.8032 23.1984 88.8313 23.1704C88.8595 23.1423 88.8753 23.1042 88.8753 23.0646V11.3572C88.8753 11.3376 88.8792 11.3181 88.8867 11.3C88.8943 11.2818 88.9053 11.2653 88.9193 11.2514C88.9332 11.2375 88.9498 11.2265 88.968 11.219C88.9862 11.2115 89.0057 11.2076 89.0255 11.2076L94.4857 11.2122C94.5255 11.2122 94.5637 11.2279 94.5918 11.256C94.62 11.284 94.6358 11.3221 94.6358 11.3617V40.7775C94.6358 40.8172 94.62 40.8552 94.5918 40.8833C94.5637 40.9113 94.5255 40.9271 94.4857 40.9271H89.0255C89.0057 40.9271 88.9862 40.9232 88.968 40.9157C88.9498 40.9082 88.9332 40.8972 88.9193 40.8833C88.9053 40.8694 88.8943 40.8529 88.8867 40.8347C88.8792 40.8166 88.8753 40.7971 88.8753 40.7775V27.9325C88.8753 27.8928 88.8595 27.8548 88.8313 27.8267C88.8032 27.7987 88.765 27.7829 88.7252 27.7829H76.3987C76.3589 27.7829 76.3207 27.7987 76.2926 27.8267C76.2644 27.8548 76.2486 27.8928 76.2486 27.9325Z" fill="#A2A2A2"/>
<path d="M116.891 32.338H107.372C107.338 32.3378 107.304 32.3488 107.277 32.3693C107.25 32.3898 107.231 32.4186 107.222 32.4514L104.987 40.8138C104.978 40.8465 104.959 40.8753 104.932 40.8958C104.905 40.9163 104.871 40.9273 104.837 40.9271H99.4271C99.4026 40.9269 99.3784 40.921 99.3566 40.9097C99.3349 40.8985 99.3161 40.8822 99.3018 40.8623C99.2876 40.8424 99.2784 40.8193 99.2748 40.7951C99.2713 40.7709 99.2736 40.7463 99.2815 40.7231L108.932 11.3119C108.943 11.2808 108.963 11.254 108.99 11.2353C109.017 11.2165 109.05 11.2068 109.083 11.2076L115.749 11.2122C115.781 11.2114 115.814 11.221 115.841 11.2398C115.868 11.2585 115.888 11.2854 115.899 11.3164L125.55 40.7231C125.558 40.7463 125.56 40.7709 125.556 40.7951C125.553 40.8193 125.544 40.8424 125.529 40.8623C125.515 40.8822 125.496 40.8985 125.475 40.9097C125.453 40.921 125.429 40.9269 125.404 40.9271H119.989C119.956 40.9279 119.924 40.9182 119.897 40.8994C119.87 40.8807 119.85 40.8539 119.839 40.8228L117.041 32.4423C117.03 32.4112 117.01 32.3844 116.983 32.3657C116.956 32.3469 116.924 32.3372 116.891 32.338ZM110.807 19.6562C110.498 22.4754 109.283 25.3535 108.482 28.1002C108.433 28.2664 108.497 28.3494 108.673 28.3494L115.603 28.354C115.631 28.3537 115.66 28.3469 115.685 28.3341C115.71 28.3213 115.732 28.3029 115.749 28.2805C115.766 28.258 115.777 28.232 115.782 28.2046C115.786 28.1772 115.784 28.1492 115.776 28.1228L111.999 15.7628C111.893 15.4123 111.782 15.4107 111.667 15.7582C111.233 17.0847 110.947 18.384 110.807 19.6562Z" fill="#A2A2A2"/>
<path d="M135.378 29.1698L135.383 40.705C135.383 40.853 135.307 40.9271 135.155 40.9271H130.359C130.317 40.9271 130.276 40.9104 130.247 40.8806C130.217 40.8509 130.2 40.8105 130.2 40.7684V12.0371C130.2 11.9427 130.235 11.8515 130.297 11.78C130.36 11.7085 130.446 11.6614 130.541 11.6473C133.666 11.2152 137.016 11.0928 140.592 11.2801C144.665 11.4977 148.874 12.7849 149.597 17.4488C150.18 21.2153 148.446 24.8821 144.902 26.4141C144.671 26.5138 144.671 26.615 144.902 26.7178C146.464 27.4037 147.509 28.6426 148.037 30.4344C149.059 33.8881 149.948 37.3087 150.703 40.6959C150.736 40.85 150.673 40.9271 150.512 40.9271H145.375C145.279 40.9271 145.187 40.8972 145.11 40.8418C145.033 40.7865 144.976 40.7084 144.947 40.6189C144.264 38.5581 143.714 36.1619 143.295 33.4304C142.572 28.7121 139.487 28.8752 135.633 28.9115C135.463 28.9145 135.378 29.0006 135.378 29.1698ZM135.369 15.3231L135.387 24.7688C135.387 24.8025 135.401 24.8347 135.424 24.8585C135.448 24.8823 135.481 24.8957 135.515 24.8957L139.719 24.8866C141.003 24.8841 142.233 24.4099 143.139 23.5685C144.046 22.727 144.553 21.5871 144.551 20.3995V19.6562C144.55 19.068 144.424 18.4859 144.179 17.943C143.935 17.4002 143.577 16.9071 143.127 16.4921C142.676 16.0771 142.142 15.7483 141.554 15.5244C140.966 15.3005 140.336 15.1859 139.701 15.1871L135.496 15.1962C135.463 15.1962 135.43 15.2096 135.406 15.2334C135.382 15.2572 135.369 15.2895 135.369 15.3231Z" fill="#A2A2A2"/>
<path d="M218.555 32.4513L216.316 40.8092C216.307 40.8432 216.287 40.8731 216.259 40.8945C216.231 40.9158 216.197 40.9272 216.162 40.9271L210.761 40.9316C210.736 40.9314 210.711 40.9254 210.688 40.9139C210.666 40.9024 210.647 40.8858 210.632 40.8654C210.618 40.8451 210.608 40.8216 210.604 40.7969C210.6 40.7721 210.603 40.7469 210.61 40.7231L220.266 11.3164C220.276 11.2849 220.296 11.2575 220.323 11.238C220.35 11.2185 220.383 11.2078 220.416 11.2076L227.077 11.2122C227.111 11.2124 227.143 11.223 227.17 11.2425C227.197 11.262 227.217 11.2894 227.228 11.3209L236.879 40.7186C236.886 40.7423 236.889 40.7676 236.885 40.7923C236.881 40.8171 236.871 40.8406 236.857 40.8609C236.842 40.8812 236.823 40.8978 236.801 40.9093C236.778 40.9208 236.753 40.9269 236.728 40.9271H231.318C231.285 40.9269 231.253 40.9162 231.226 40.8967C231.199 40.8772 231.179 40.8498 231.168 40.8183L228.37 32.4468C228.359 32.4153 228.339 32.3879 228.312 32.3684C228.285 32.3489 228.253 32.3382 228.22 32.338L218.71 32.3335C218.674 32.3333 218.64 32.3448 218.612 32.3661C218.584 32.3874 218.564 32.4174 218.555 32.4513ZM221.581 19.5746C221.285 22.43 220.029 25.3444 219.251 28.0684C219.197 28.2588 219.268 28.354 219.465 28.354L226.263 28.3494C226.491 28.3494 226.571 28.2422 226.504 28.0276L222.732 15.6857C222.638 15.3805 222.541 15.379 222.441 15.6812C221.995 17.047 221.708 18.3448 221.581 19.5746Z" fill="#A2A2A2"/>
<path d="M289.624 23.3909C290.329 30.4253 287.526 37.9175 280.533 40.2563C276.219 41.6976 271.041 41.6795 266.578 41.3984C265.762 41.3471 264.958 41.2156 264.166 41.0041C264.005 40.9618 263.925 40.8591 263.925 40.6959V12.0461C263.925 11.895 263.999 11.8074 264.148 11.7832C268.367 11.1155 272.693 11.0037 277.125 11.4478C283.982 12.1322 288.937 16.5287 289.624 23.3909ZM283.959 26.5455C284.623 18.0562 278.631 14.054 270.773 15.4274C270.617 15.4551 270.476 15.5366 270.374 15.6576C270.273 15.7786 270.217 15.9314 270.218 16.0891V36.6439C270.218 36.8312 270.31 36.9279 270.495 36.934C277.803 37.2512 283.331 34.6133 283.959 26.5455Z" fill="#A2A2A2"/>
<path d="M300.686 29.3738C300.722 33.6207 302.892 37.351 307.779 36.8705C312.784 36.381 313.34 31.078 313.312 27.094C313.273 21.7305 313.268 16.5152 313.299 11.4479C313.299 11.2877 313.381 11.2076 313.544 11.2076L318.745 11.2122C318.813 11.2133 318.878 11.2406 318.926 11.2881C318.973 11.3355 319 11.3994 319 11.466C319 17.0319 318.998 22.7881 318.995 28.7347C318.991 35.8734 315.724 41.0177 308.016 41.4664C299.639 41.9559 295.512 36.7028 295.485 28.7982C295.467 23.0903 295.462 17.3265 295.471 11.5068C295.474 11.3073 295.576 11.2076 295.776 11.2076L300.413 11.2122C300.582 11.2122 300.667 11.2968 300.667 11.466C300.625 17.5334 300.631 23.5027 300.686 29.3738Z" fill="#A2A2A2"/>
</svg>
