<svg width="208" height="86" viewBox="0 0 208 86" fill="none" xmlns="http://www.w3.org/2000/svg">
<path d="M132 64.7999V16.8H151.2V64.7999C151.2 78.7999 144 85.9999 132 85.9999C128 85.9999 124.8 85.1999 124.8 85.1999V69.1999C124.8 69.1999 126.4 69.5999 128 69.5999C130.4 69.5999 132 67.9999 132 64.7999Z" fill="#3A1A1A"/>
<path d="M56 0.199951C64 0.199951 70.4 6.59995 70.4 21.4V43.8H51.2V21.4C51.2 18.2 49.6 16.6 48 16.6C46.4 16.6 44.8 18.2 44.8 21.4V43.8H25.6V21.4C25.6 18.2 24 16.6 22.4 16.6C20.8 16.6 19.2 18.2 19.2 21.4V43.8H0V1.39995H18.4L20 6.19995C20 6.19995 23.2 0.199951 31.2 0.199951C39.2 0.199951 43.2 7.79995 43.2 7.79995C43.2 7.79995 48 0.199951 56 0.199951Z" fill="#3A1A1A"/>
<path fill-rule="evenodd" clip-rule="evenodd" d="M101 47.8C114.807 47.8 126 37.5025 126 24.8C126 12.0974 114.807 1.79995 101 1.79995C87.1929 1.79995 76 12.0974 76 24.8C76 37.5025 87.1929 47.8 101 47.8ZM101 30.8C104.314 30.8 107 27.8898 107 24.3C107 20.7101 104.314 17.8 101 17.8C97.6863 17.8 95 20.7101 95 24.3C95 27.8898 97.6863 30.8 101 30.8Z" fill="#6B60EB"/>
<path fill-rule="evenodd" clip-rule="evenodd" d="M183 47.8C196.807 47.8 208 37.5025 208 24.8C208 12.0974 196.807 1.79995 183 1.79995C169.193 1.79995 158 12.0974 158 24.8C158 37.5025 169.193 47.8 183 47.8ZM183 30.8C186.314 30.8 189 27.8898 189 24.3C189 20.7101 186.314 17.8 183 17.8C179.686 17.8 177 20.7101 177 24.3C177 27.8898 179.686 30.8 183 30.8Z" fill="#F04949"/>
</svg>
