<svg width="32" height="32" viewBox="0 0 32 32" fill="none" xmlns="http://www.w3.org/2000/svg">
<g id="payments">
<rect width="32" height="32" rx="4" fill="#EAEAEA"/>
<mask id="mask0_58_245" style="mask-type:alpha" maskUnits="userSpaceOnUse" x="0" y="0" width="32" height="32">
<rect id="Bounding box" width="32" height="32" fill="#D9D9D9"/>
</mask>
<g mask="url(#mask0_58_245)">
<path id="payments_2" d="M18.6666 17.3333C17.5555 17.3333 16.6111 16.9444 15.8333 16.1666C15.0555 15.3888 14.6666 14.4444 14.6666 13.3333C14.6666 12.2221 15.0555 11.2777 15.8333 10.4999C16.6111 9.72214 17.5555 9.33325 18.6666 9.33325C19.7778 9.33325 20.7222 9.72214 21.5 10.4999C22.2778 11.2777 22.6666 12.2221 22.6666 13.3333C22.6666 14.4444 22.2778 15.3888 21.5 16.1666C20.7222 16.9444 19.7778 17.3333 18.6666 17.3333ZM9.33331 21.3333C8.59998 21.3333 7.9722 21.0721 7.44998 20.5499C6.92776 20.0277 6.66665 19.3999 6.66665 18.6666V7.99992C6.66665 7.26659 6.92776 6.63881 7.44998 6.11659C7.9722 5.59436 8.59998 5.33325 9.33331 5.33325H28C28.7333 5.33325 29.3611 5.59436 29.8833 6.11659C30.4055 6.63881 30.6666 7.26659 30.6666 7.99992V18.6666C30.6666 19.3999 30.4055 20.0277 29.8833 20.5499C29.3611 21.0721 28.7333 21.3333 28 21.3333H9.33331ZM12 18.6666H25.3333C25.3333 17.9333 25.5944 17.3055 26.1166 16.7833C26.6389 16.261 27.2666 15.9999 28 15.9999V10.6666C27.2666 10.6666 26.6389 10.4055 26.1166 9.88325C25.5944 9.36103 25.3333 8.73325 25.3333 7.99992H12C12 8.73325 11.7389 9.36103 11.2166 9.88325C10.6944 10.4055 10.0666 10.6666 9.33331 10.6666V15.9999C10.0666 15.9999 10.6944 16.261 11.2166 16.7833C11.7389 17.3055 12 17.9333 12 18.6666ZM26.6666 26.6666H3.99998C3.26665 26.6666 2.63887 26.4055 2.11665 25.8833C1.59442 25.361 1.33331 24.7333 1.33331 23.9999V9.33325H3.99998V23.9999H26.6666V26.6666Z" fill="#4D54FF"/>
</g>
</g>
</svg>
