<svg width="226" height="91" viewBox="0 0 226 91" fill="none" xmlns="http://www.w3.org/2000/svg">
<g id="Tomic">
<path d="M0.803475 21.4363V53.9659C0.803475 73.7051 16.8498 89.7072 36.6438 89.7072C56.4382 89.7072 72.4849 73.7051 72.4849 53.9659V21.4363H0.803475Z" fill="#A2A2A2"/>
<path d="M1.60654 22.2287V53.9659C1.60654 73.2367 17.3244 88.9146 36.6438 88.9146C55.9636 88.9146 71.6814 73.2367 71.6814 53.9659V22.2287H1.60654ZM36.6438 90.5C16.4383 90.5 0 74.1107 0 53.9659V21.4362C0 20.9986 0.359873 20.6438 0.803445 20.6438H72.4849C72.9285 20.6438 73.288 20.9986 73.288 21.4362V53.9659C73.288 74.1107 56.8497 90.5 36.6438 90.5Z" fill="#A2A2A2"/>
<path d="M47.2245 56.7339C46.9275 56.7339 46.6422 56.5705 46.5027 56.2899C46.3077 55.8968 46.4723 55.4219 46.8707 55.2295C49.3534 54.0283 50.896 51.5892 50.896 48.8634C50.896 46.1379 49.3538 43.6985 46.871 42.4976C46.4727 42.3049 46.3081 41.8303 46.5034 41.4372C46.6987 41.0441 47.1801 40.8813 47.5784 41.0744C50.6156 42.5433 52.5026 45.5284 52.5026 48.8634C52.5026 52.1991 50.6153 55.1838 47.5777 56.6527C47.4636 56.7078 47.3432 56.7339 47.2245 56.7339Z" fill="#4C4C4C"/>
<path d="M36.6446 64.5114C34.2964 64.5114 32.0891 63.6092 30.4293 61.9709C29.7332 61.2844 29.1635 60.4941 28.7351 59.6225C28.5416 59.2287 28.7083 58.7544 29.1074 58.5635C29.5068 58.3735 29.9875 58.5373 30.1806 58.9311C30.5306 59.6431 30.9964 60.2888 31.5654 60.8502C32.9219 62.1887 34.7255 62.9261 36.6446 62.9261C39.4067 62.9261 41.8785 61.4043 43.0955 58.9552C43.2907 58.5621 43.7721 58.3993 44.1701 58.5924C44.5685 58.7851 44.7331 59.2597 44.5378 59.6528C43.0488 62.6498 40.0243 64.5114 36.6446 64.5114Z" fill="#4C4C4C"/>
<path d="M26.0631 56.7343C25.9445 56.7343 25.824 56.7081 25.7103 56.6534C24.8387 56.2321 24.048 55.6742 23.3607 54.996C21.7005 53.3581 20.7862 51.1801 20.7862 48.8634C20.7862 45.528 22.6731 42.5433 25.7103 41.0748C26.108 40.8824 26.5901 41.0448 26.785 41.4375C26.9803 41.8306 26.8157 42.3052 26.4174 42.498C23.935 43.6985 22.3927 46.1379 22.3927 48.8634C22.3927 50.7567 23.14 52.5364 24.4969 53.8749C25.0587 54.4297 25.7047 54.8852 26.417 55.2295C26.8154 55.4219 26.9803 55.8968 26.785 56.2899C26.6455 56.5708 26.3602 56.7343 26.0631 56.7343Z" fill="#4C4C4C"/>
<path d="M29.4711 39.217C29.3525 39.217 29.232 39.1905 29.1183 39.1354C28.72 38.9427 28.555 38.4681 28.7503 38.075C30.2393 35.0777 33.2637 33.2154 36.6446 33.2154C40.0247 33.2154 43.0492 35.0773 44.5381 38.0743C44.7334 38.4674 44.5688 38.942 44.1705 39.1347C43.7732 39.3281 43.2911 39.1654 43.0955 38.772C41.8788 36.3225 39.407 34.8006 36.6446 34.8006C33.8818 34.8006 31.4097 36.3225 30.193 38.7727C30.0535 39.0535 29.7682 39.217 29.4711 39.217Z" fill="#4C4C4C"/>
<path d="M36.6443 46.3696C35.969 46.3696 35.3344 46.6289 34.8569 47.1004C34.3794 47.5712 34.1167 48.1974 34.1167 48.8637C34.1167 49.5297 34.3794 50.1563 34.8569 50.6274C35.3344 51.0986 35.969 51.3578 36.6443 51.3578C37.3192 51.3578 37.9541 51.0986 38.4313 50.6274C38.9087 50.1563 39.1718 49.5297 39.1718 48.8637C39.1718 48.1974 38.9087 47.5712 38.4316 47.1004C37.9541 46.6289 37.3192 46.3696 36.6443 46.3696ZM36.6443 52.9431C35.5399 52.9431 34.5016 52.5186 33.7208 51.7481C32.9399 50.978 32.5101 49.9531 32.5101 48.8637C32.5101 47.774 32.9399 46.7498 33.7208 45.9793C34.5016 45.2088 35.5399 44.7844 36.6443 44.7844C37.7486 44.7844 38.7865 45.2088 39.5674 45.9793C40.3482 46.7498 40.7784 47.774 40.7784 48.8637C40.7784 49.9531 40.3482 50.978 39.5674 51.7481C38.7865 52.5186 37.7486 52.9431 36.6443 52.9431Z" fill="#4C4C4C"/>
<path d="M51.0865 60.5453C50.9378 60.5453 50.7877 60.5045 50.6531 60.4195C50.2798 60.1832 50.1714 59.6929 50.4112 59.3245C51.477 57.6853 52.0407 55.7766 52.0407 53.8056C52.0407 52.2252 51.6611 50.6386 50.9427 49.2178C50.8301 48.9948 50.8301 48.7327 50.9427 48.51C51.6607 47.0892 52.0403 45.503 52.0407 43.9222C52.0407 41.9512 51.4774 40.0429 50.4112 38.4033C50.1714 38.0346 50.2798 37.5443 50.6531 37.308C51.0264 37.0717 51.5237 37.1787 51.7631 37.5471C52.996 39.4425 53.6472 41.6473 53.6472 43.9222C53.6469 45.6173 53.269 47.3172 52.5517 48.8637C53.2694 50.411 53.6472 52.1109 53.6472 53.8056C53.6472 56.0809 52.9957 58.2854 51.7631 60.1808C51.6098 60.4167 51.3506 60.5453 51.0865 60.5453Z" fill="#4C4C4C"/>
<path d="M31.6441 65.644C29.3838 65.644 27.1289 65.0184 25.1759 63.7827C24.8023 63.5461 24.6938 63.0558 24.9333 62.6874C25.1727 62.3187 25.6696 62.2124 26.0433 62.448C29.108 64.388 33.0324 64.5912 36.2836 62.9798C36.5103 62.8676 36.7777 62.8676 37.0047 62.9798C40.2563 64.5909 44.1803 64.387 47.245 62.448C47.6187 62.2114 48.1152 62.3187 48.3547 62.6871C48.5945 63.0554 48.4857 63.5457 48.1124 63.782C44.685 65.9517 40.3269 66.2413 36.6442 64.5675C35.0599 65.2875 33.3506 65.644 31.6441 65.644Z" fill="#4C4C4C"/>
<path d="M22.2016 60.5453C21.9371 60.5453 21.6782 60.4167 21.5246 60.1808C20.2917 58.284 19.6398 56.0784 19.6398 53.8025C19.6398 52.1092 20.0177 50.4103 20.736 48.8637C20.0177 47.3172 19.6398 45.6179 19.6398 43.9247C19.6398 41.6491 20.2917 39.4438 21.5246 37.5474C21.7641 37.1787 22.2613 37.0721 22.6346 37.3083C23.0079 37.5446 23.1163 38.0349 22.8769 38.4036C21.81 40.0439 21.2463 41.9529 21.2463 43.9247C21.2463 45.5036 21.6263 47.0889 22.345 48.51C22.458 48.7327 22.458 48.9951 22.345 49.2181C21.6263 50.6382 21.2463 52.2235 21.2463 53.8025C21.2463 55.7742 21.81 57.6839 22.8769 59.3245C23.1167 59.6929 23.0079 60.1836 22.6346 60.4195C22.5004 60.5045 22.35 60.5453 22.2016 60.5453Z" fill="#4C4C4C"/>
<path d="M47.678 35.4049C47.5297 35.4049 47.3792 35.3645 47.245 35.2798C44.1796 33.3395 40.2556 33.1363 37.0047 34.7477C36.7777 34.8602 36.5103 34.8602 36.2836 34.7477C33.032 33.1356 29.108 33.3398 26.0433 35.2798C25.6696 35.5154 25.1731 35.4091 24.9333 35.0401C24.6938 34.6721 24.8023 34.1814 25.1759 33.9451C28.6037 31.7761 32.9617 31.4862 36.6442 33.1603C40.3269 31.4866 44.6846 31.7758 48.1124 33.9451C48.4857 34.1814 48.5945 34.6721 48.3547 35.0401C48.2014 35.2763 47.9422 35.4049 47.678 35.4049Z" fill="#4C4C4C"/>
<path d="M60.8813 47.1997C60.6758 47.1997 60.4702 47.1224 60.3131 46.9676L59.7452 46.4069C59.4316 46.0975 59.4316 45.5957 59.7452 45.2862C60.0592 44.9764 60.5674 44.9764 60.8813 45.2862L61.4492 45.8466C61.7628 46.1564 61.7628 46.6578 61.4492 46.9676C61.2924 47.1224 61.0869 47.1997 60.8813 47.1997Z" fill="#4C4C4C"/>
<path d="M65.9192 52.1708C65.7137 52.1708 65.5081 52.0938 65.3513 51.9388L64.7831 51.3784C64.4695 51.0686 64.4695 50.5671 64.7831 50.2573C65.0971 49.9475 65.6056 49.9475 65.9192 50.2573L66.4874 50.818C66.801 51.1275 66.801 51.6293 66.4874 51.9388C66.3303 52.0938 66.1248 52.1708 65.9192 52.1708Z" fill="#4C4C4C"/>
<path d="M65.3513 47.1997C65.1458 47.1997 64.9402 47.1224 64.7831 46.9676C64.4695 46.6578 64.4695 46.1564 64.7831 45.8466L65.3513 45.2862C65.6653 44.9764 66.1735 44.9764 66.4874 45.2862C66.801 45.5957 66.801 46.0975 66.4874 46.4069L65.9192 46.9676C65.7624 47.1224 65.5569 47.1997 65.3513 47.1997Z" fill="#4C4C4C"/>
<path d="M60.3131 52.1708C60.1076 52.1708 59.902 52.0938 59.7452 51.9388C59.4316 51.6293 59.4316 51.1275 59.7452 50.818L60.3131 50.2573C60.6271 49.9475 61.1353 49.9475 61.4492 50.2573C61.7628 50.5671 61.7628 51.0686 61.4492 51.3784L60.8813 51.9388C60.7242 52.0938 60.5186 52.1708 60.3131 52.1708Z" fill="#4C4C4C"/>
<path d="M7.93668 47.7022C7.73114 47.7022 7.5256 47.6249 7.3688 47.4701L6.80055 46.9098C6.48695 46.6 6.48695 46.0985 6.80055 45.7887C7.11452 45.4789 7.62271 45.4789 7.93668 45.7887L8.50492 46.3491C8.81853 46.6589 8.81853 47.1603 8.50492 47.4701C8.34776 47.6249 8.14222 47.7022 7.93668 47.7022Z" fill="#4C4C4C"/>
<path d="M12.9749 52.6737C12.7693 52.6737 12.5638 52.5964 12.407 52.4416L11.8387 51.8809C11.5251 51.5715 11.5251 51.0697 11.8387 50.7602C12.1527 50.4504 12.6613 50.4504 12.9749 50.7602L13.5431 51.3206C13.8567 51.6304 13.8567 52.1318 13.5431 52.4416C13.386 52.5964 13.1804 52.6737 12.9749 52.6737Z" fill="#4C4C4C"/>
<path d="M12.407 47.7022C12.2015 47.7022 11.9959 47.6249 11.8387 47.4701C11.5251 47.1603 11.5251 46.6589 11.8387 46.3491L12.407 45.7887C12.721 45.4789 13.2292 45.4789 13.5431 45.7887C13.8567 46.0985 13.8567 46.6 13.5431 46.9098L12.9749 47.4701C12.8181 47.6249 12.6125 47.7022 12.407 47.7022Z" fill="#4C4C4C"/>
<path d="M7.3688 52.6737C7.16326 52.6737 6.95771 52.5964 6.80055 52.4416C6.48695 52.1318 6.48695 51.6304 6.80055 51.3206L7.3688 50.7602C7.6824 50.4504 8.19096 50.4504 8.50492 50.7602C8.81853 51.0697 8.81853 51.5715 8.50492 51.8809L7.93668 52.4416C7.77987 52.5964 7.57434 52.6737 7.3688 52.6737Z" fill="#4C4C4C"/>
<path d="M1.60654 20.6438H71.6814V2.08526H1.60654V20.6438ZM72.4849 22.2287H0.803445C0.359873 22.2287 0 21.8739 0 21.4362V1.29245C0 0.854757 0.359873 0.5 0.803445 0.5H72.4849C72.9285 0.5 73.288 0.854757 73.288 1.29245V21.4362C73.288 21.8739 72.9285 22.2287 72.4849 22.2287Z" fill="#A2A2A2"/>
<path d="M18.4033 7.76589V9.3968H16.4115V15.1363H14.3349V9.3968H12.3642V7.76589H18.4033Z" fill="#A2A2A2"/>
<path d="M25.9311 15.2095C25.2319 15.2095 24.5891 15.0492 24.0029 14.7286C23.4166 14.401 22.9504 13.9515 22.6043 13.38C22.2653 12.8015 22.0958 12.1498 22.0958 11.425C22.0958 10.7001 22.2653 10.0519 22.6043 9.48043C22.9504 8.90195 23.4166 8.45241 24.0029 8.1318C24.5891 7.81119 25.2319 7.65089 25.9311 7.65089C26.6375 7.65089 27.2802 7.81119 27.8594 8.1318C28.4457 8.45241 28.9083 8.90195 29.2473 9.48043C29.5864 10.0519 29.7559 10.7001 29.7559 11.425C29.7559 12.1498 29.5864 12.8015 29.2473 13.38C28.9083 13.9515 28.4457 14.401 27.8594 14.7286C27.2732 15.0492 26.6304 15.2095 25.9311 15.2095ZM25.9311 13.3068C26.4609 13.3068 26.8776 13.136 27.1813 12.7945C27.4921 12.453 27.6475 11.9965 27.6475 11.425C27.6475 10.8395 27.4921 10.3795 27.1813 10.045C26.8776 9.70347 26.4609 9.53271 25.9311 9.53271C25.3943 9.53271 24.9741 9.70347 24.6703 10.045C24.3666 10.3795 24.2148 10.8395 24.2148 11.425C24.2148 12.0035 24.3666 12.4635 24.6703 12.805C24.9741 13.1395 25.3943 13.3068 25.9311 13.3068Z" fill="#A2A2A2"/>
<path d="M42.5875 7.76589V15.1363H40.5109V11.0695L39.1017 15.1363H37.3642L35.9445 11.0382V15.1363H33.8679V7.76589H36.3788L38.2541 12.5541L40.0871 7.76589H42.5875Z" fill="#A2A2A2"/>
<path d="M49.0246 7.76589V15.1363H46.948V7.76589H49.0246Z" fill="#A2A2A2"/>
<path d="M53.1313 11.4354C53.1313 10.7106 53.2832 10.0659 53.5869 9.50134C53.8977 8.92983 54.3356 8.48725 54.9007 8.17362C55.4658 7.85301 56.1156 7.69271 56.8502 7.69271C57.7825 7.69271 58.5665 7.94013 59.2022 8.43498C59.8379 8.92286 60.2476 9.58846 60.4312 10.4318H58.1957C58.0615 10.153 57.8743 9.94043 57.6342 9.79407C57.4011 9.64771 57.1292 9.57453 56.8184 9.57453C56.3381 9.57453 55.9531 9.74528 55.6635 10.0868C55.381 10.4213 55.2397 10.8709 55.2397 11.4354C55.2397 12.0069 55.381 12.4635 55.6635 12.805C55.9531 13.1395 56.3381 13.3068 56.8184 13.3068C57.1292 13.3068 57.4011 13.2336 57.6342 13.0873C57.8743 12.9409 58.0615 12.7283 58.1957 12.4495H60.4312C60.2476 13.2929 59.8379 13.9619 59.2022 14.4568C58.5665 14.9447 57.7825 15.1886 56.8502 15.1886C56.1156 15.1886 55.4658 15.0318 54.9007 14.7182C54.3356 14.3976 53.8977 13.955 53.5869 13.3904C53.2832 12.8189 53.1313 12.1673 53.1313 11.4354Z" fill="#A2A2A2"/>
<path d="M115.48 16.1578V21.5708H108.85V40.6205H101.938V21.5708H95.378V16.1578H115.48Z" fill="#A2A2A2"/>
<path d="M129.957 40.8634C127.63 40.8634 125.49 40.3313 123.539 39.2672C121.587 38.18 120.036 36.688 118.884 34.7911C117.755 32.8711 117.191 30.7082 117.191 28.3024C117.191 25.8966 117.755 23.7453 118.884 21.8484C120.036 19.9284 121.587 18.4364 123.539 17.3723C125.49 16.3082 127.63 15.7761 129.957 15.7761C132.308 15.7761 134.448 16.3082 136.376 17.3723C138.327 18.4364 139.867 19.9284 140.996 21.8484C142.124 23.7453 142.688 25.8966 142.688 28.3024C142.688 30.7082 142.124 32.8711 140.996 34.7911C139.867 36.688 138.327 38.18 136.376 39.2672C134.424 40.3313 132.285 40.8634 129.957 40.8634ZM129.957 34.5482C131.721 34.5482 133.108 33.9814 134.119 32.8479C135.153 31.7145 135.67 30.1993 135.67 28.3024C135.67 26.3593 135.153 24.8325 134.119 23.7222C133.108 22.5887 131.721 22.0219 129.957 22.0219C128.17 22.0219 126.771 22.5887 125.761 23.7222C124.75 24.8325 124.244 26.3593 124.244 28.3024C124.244 30.2224 124.75 31.7492 125.761 32.8827C126.771 33.993 128.17 34.5482 129.957 34.5482Z" fill="#A2A2A2"/>
<path d="M174.82 16.1578V40.6205H167.908V27.1226L163.217 40.6205H157.434L152.708 27.0186V40.6205H145.796V16.1578H154.154L160.396 32.0499L166.497 16.1578H174.82Z" fill="#A2A2A2"/>
<path d="M185.667 16.1578V40.6205H178.755V16.1578H185.667Z" fill="#A2A2A2"/>
<path d="M188.757 28.3371C188.757 25.9313 189.262 23.7916 190.273 21.9178C191.308 20.021 192.765 18.552 194.646 17.5111C196.527 16.447 198.69 15.9149 201.135 15.9149C204.239 15.9149 206.848 16.7361 208.964 18.3786C211.08 19.9978 212.444 22.207 213.055 25.006H205.614C205.167 24.0807 204.544 23.3752 203.745 22.8894C202.969 22.4036 202.064 22.1607 201.029 22.1607C199.431 22.1607 198.149 22.7275 197.185 23.861C196.245 24.9713 195.775 26.4634 195.775 28.3371C195.775 30.234 196.245 31.7492 197.185 32.8827C198.149 33.993 199.431 34.5482 201.029 34.5482C202.064 34.5482 202.969 34.3053 203.745 33.8195C204.544 33.3337 205.167 32.6282 205.614 31.7029H213.055C212.444 34.5019 211.08 36.7226 208.964 38.3651C206.848 39.9843 204.239 40.794 201.135 40.794C198.69 40.794 196.527 40.2735 194.646 39.2325C192.765 38.1684 191.308 36.6995 190.273 34.8258C189.262 32.9289 188.757 30.766 188.757 28.3371Z" fill="#A2A2A2"/>
<path d="M95.907 61.9516C95.907 59.5458 96.4124 57.406 97.4234 55.5323C98.4579 53.6354 99.9156 52.1665 101.796 51.1255C103.677 50.0614 105.84 49.5294 108.285 49.5294C111.389 49.5294 113.999 50.3506 116.115 51.993C118.231 53.6123 119.594 55.8214 120.205 58.6205H112.764C112.318 57.6952 111.695 56.9896 110.895 56.5039C110.119 56.0181 109.214 55.7752 108.18 55.7752C106.581 55.7752 105.3 56.3419 104.336 57.4754C103.395 58.5858 102.925 60.0778 102.925 61.9516C102.925 63.8484 103.395 65.3636 104.336 66.4971C105.3 67.6075 106.581 68.1627 108.18 68.1627C109.214 68.1627 110.119 67.9198 110.895 67.434C111.695 66.9482 112.318 66.2427 112.764 65.3174H120.205C119.594 68.1164 118.231 70.3371 116.115 71.9795C113.999 73.5988 111.389 74.4084 108.285 74.4084C105.84 74.4084 103.677 73.888 101.796 72.847C99.9156 71.7829 98.4579 70.314 97.4234 68.4402C96.4124 66.5434 95.907 64.3805 95.907 61.9516Z" fill="#A2A2A2"/>
<path d="M135.399 74.4778C133.071 74.4778 130.932 73.9458 128.98 72.8817C127.029 71.7945 125.477 70.3024 124.325 68.4055C123.197 66.4855 122.632 64.3227 122.632 61.9169C122.632 59.5111 123.197 57.3598 124.325 55.4629C125.477 53.5429 127.029 52.0508 128.98 50.9867C130.932 49.9226 133.071 49.3906 135.399 49.3906C137.75 49.3906 139.889 49.9226 141.817 50.9867C143.769 52.0508 145.309 53.5429 146.437 55.4629C147.566 57.3598 148.13 59.5111 148.13 61.9169C148.13 64.3227 147.566 66.4855 146.437 68.4055C145.309 70.3024 143.769 71.7945 141.817 72.8817C139.866 73.9458 137.726 74.4778 135.399 74.4778ZM135.399 68.1627C137.162 68.1627 138.549 67.5959 139.56 66.4624C140.595 65.3289 141.112 63.8137 141.112 61.9169C141.112 59.9737 140.595 58.447 139.56 57.3366C138.549 56.2031 137.162 55.6364 135.399 55.6364C133.612 55.6364 132.213 56.2031 131.202 57.3366C130.191 58.447 129.686 59.9737 129.686 61.9169C129.686 63.8369 130.191 65.3636 131.202 66.4971C132.213 67.6075 133.612 68.1627 135.399 68.1627Z" fill="#A2A2A2"/>
<path d="M168.094 49.7723V55.1853H158.149V59.488H165.485V64.6581H158.149V74.2349H151.237V49.7723H168.094Z" fill="#A2A2A2"/>
<path d="M187.863 49.7723V55.1853H177.918V59.488H185.253V64.6581H177.918V74.2349H171.006V49.7723H187.863Z" fill="#A2A2A2"/>
<path d="M197.686 55.22V59.2104H205.621V64.3805H197.686V68.7872H206.679V74.2349H190.774V49.7723H206.679V55.22H197.686Z" fill="#A2A2A2"/>
<path d="M217.007 55.22V59.2104H224.942V64.3805H217.007V68.7872H226V74.2349H210.095V49.7723H226V55.22H217.007Z" fill="#A2A2A2"/>
</g>
</svg>
